# AST/ASF file generated using VICON BodyLanguage
# -----------------------------------------------
:version 1.10
:name VICON
:units
  mass 1.0
  length 0.45
  angle deg
:documentation
   .ast/.asf automatically generated from VICON data using
   VICON BodyBuilder and BodyLanguage model FoxedUp or BRILLIANT.MOD
:root
   order TX TY TZ RX RY RZ
   axis XYZ
   position 0 0 0  
   orientation 0 0 0 
:bonedata
  begin
     id 1 
     name lhipjoint
     direction 0.570549 -0.739093 0.358072 
     length 2.41801 
     axis 0 0 0  XYZ
  end
  begin
     id 2 
     name lfemur
     direction 0.34202 -0.939693 0  
     length 7.44434  
     axis 0 0 20  XYZ
    dof rx ry rz
    limits (-160.0 20.0)
           (-70.0 70.0)
           (-60.0 70.0)
  end
  begin
     id 3 
     name ltibia
     direction 0.34202 -0.939693 0   
     length 7.60047   
     axis 0 0 20   XYZ
    dof rx
    limits (-10.0 170.0)
  end
  begin
     id 4 
     name lfoot
     direction 0.0909041 -0.249757 0.964032   
     length 2.03437   
     axis -90 7.62852e-016 20   XYZ
    dof rx rz
    limits (-45.0 90.0)
           (-70.0 20.0)
  end
  begin
     id 5 
     name ltoes
     direction 1.53547e-011 -4.2174e-011 1   
     length 1.02054   
     axis -90 7.62852e-016 20   XYZ
    dof rx
    limits (-90.0 20.0)
  end
  begin
     id 6 
     name rhipjoint
     direction -0.558096 -0.746754 0.361784   
     length 2.3932  
     axis 0 0 0  XYZ 
  end
  begin
     id 7 
     name rfemur
     direction -0.34202 -0.939693 0   
     length 7.3886   
     axis 0 0 -20   XYZ
    dof rx ry rz
    limits (-160.0 20.0)
           (-70.0 70.0)
           (-70.0 60.0)
  end
  begin
     id 8 
     name rtibia
     direction -0.34202 -0.939693 0   
     length 7.4839   
     axis 0 0 -20   XYZ
    dof rx
    limits (-10.0 170.0)
 end
 begin
     id 9 
     name rfoot
     direction -0.114619 -0.314914 0.942174   
     length 2.25127  
     axis -90 -7.62852e-016 -20   XYZ
    dof rx rz
    limits (-45.0 90.0)
           (-20.0 70.0)
  end
  begin
     id 10 
     name rtoes
     direction -1.53518e-011 -4.21881e-011 1   
     length 1.11821   
     axis -90 -7.62852e-016 -20   XYZ
    dof rx
    limits (-90.0 20.0)
  end
  begin
     id 11 
     name lowerback
     direction -0.00902269 0.996426 -0.0839821   
     length 2.25052   
     axis 0 0 0   XYZ
    dof rx ry rz
    limits (-20.0 45.0)
           (-30.0 30.0)
           (-30.0 30.0)
  end
  begin
     id 12 
     name upperback
     direction 0.0370973 0.999169 -0.0168941   
     length 2.24876   
     axis 0 0 0   XYZ
    dof rx ry rz
    limits (-20.0 45.0)
           (-30.0 30.0)
           (-30.0 30.0)
  end
  begin
     id 13 
     name thorax
     direction 0.0402726 0.998931 0.0227027   
     length 2.26408   
     axis 0 0 0   XYZ
    dof rx ry rz
    limits (-20.0 45.0)
           (-30.0 30.0)
           (-30.0 30.0)
  end
  begin
     id 14 
     name lowerneck
     direction -0.0733697 0.98508 0.155675   
     length 1.58204   
     axis 0 0 0   XYZ
    dof rx ry rz
    limits (-20.0 45.0)
           (-30.0 30.0)
           (-30.0 30.0)
  end
  begin
     id 15 
     name upperneck
     direction 0.0426554 0.993501 -0.105526   
     length 1.61222   
     axis 0 0 0   XYZ
    dof rx ry rz
    limits (-20.0 45.0)
           (-30.0 30.0)
           (-30.0 30.0)
  end
  begin
     id 16
     name head
     direction 0.020792 0.998384 -0.0528868  
     length 1.61527  
     axis 0 0 0   XYZ
    dof rx ry rz
    limits (-20.0 45.0)
           (-30.0 30.0)
           (-30.0 30.0)
  end
  begin
     id 17 
     name lclavicle
     direction 0.967109 0.155462 -0.201325  
     length 3.59357  
     axis 0 0 0   XYZ
    dof ry rz
    limits (-20.0 10.0)
           (0.0 20.0)
  end
  begin
     id 18 
     name lhumerus
     direction 1 -4.48968e-011 2.38195e-027   
     length 5.38154   
     axis 180 -30 -90   XYZ
    dof rx ry rz
    limits (-60.0 90.0)
           (-90.0 90.0)
           (-90.0 90.0)
  end
  begin
     id 19
     name lradius
     direction 1 -4.48961e-011 4.85371e-027   
     length 3.33312   
     axis 180 -30 -90   XYZ
    dof rx
    limits (-10.0 170.0)
  end
  begin
     id 20
     name lwrist
     direction 1 -4.48961e-011 4.76515e-027   
     length 1.66656   
     axis -3.27502e-015 90 90   XYZ
    dof ry
    limits (-180.0 0.0)
 end
  begin
     id 21 
     name lhand
     direction 1 -4.48951e-011 9.53074e-027   
     length 0.710789   
     axis -6.08098e-015 90 90   XYZ
    dof rx rz
    limits (-90.0 90.0)
           (-45.0 45.0)
  end
  begin
     id 22 
     name lfingers
     direction 1 -4.48953e-011 1.90613e-026   
     length 0.573057   
     axis -1.21619e-014 90 90   XYZ
    dof rx
    limits (0.0 90.0)
  end
  begin
     id 23
     name lthumb
     direction 0.707107 -6.34973e-011 0.707107   
     length 0.822798   
     axis -90 45 -9.86923e-015   XYZ
    dof rx rz
    limits (-45.0 45.0)
           (-45.0 45.0)
  end
  begin
     id 24 
     name rclavicle
     direction -0.9585 0.265289 -0.104398   
     length 3.42039  
     axis 0 0 0   XYZ 
    dof ry rz
    limits (-10.0 20.0)
           (-20.0 0.0)
  end
  begin
     id 25 
     name rhumerus
     direction -1 -4.48977e-011 2.21478e-027  
     length 5.16954   
     axis 180 30 90   XYZ
    dof rx ry rz
    limits (-90.0 60.0)
           (-90.0 90.0)
           (-90.0 90.0)
  end
  begin
     id 26 
     name rradius
     direction -1 -4.48967e-011 5.63677e-027   
     length 3.38287   
     axis 180 30 90   XYZ
    dof rx
    limits (-10.0 170.0)
  end
  begin
     id 27 
     name rwrist
     direction -1 -4.48967e-011 4.76501e-027   
     length 1.69144   
     axis -3.27502e-015 -90 -90   XYZ
    dof ry
    limits (-180.0 0.0)
  end
  begin
     id 28
     name rhand
     direction -1 -4.48902e-011 9.53292e-027   
     length 0.817967   
     axis -6.08098e-015 -90 -90   XYZ
    dof rx rz
    limits (-90.0 90.0)
           (-45.0 45.0)
  end
  begin
     id 29
     name rfingers
     direction -1 -4.49012e-011 1.90561e-026   
     length 0.659466   
     axis -1.21619e-014 -90 -90   XYZ
    dof rx
    limits (0.0 90.0)
  end
  begin
     id 30
     name rthumb
     direction -0.707107 -6.34944e-011 0.707107   
     length 0.946865   
     axis -90 -45 9.86923e-015   XYZ
    dof rx rz
    limits (-45.0 45.0)
           (-45.0 45.0)
  end
:hierarchy
  begin
    root lhipjoint rhipjoint lowerback
    lhipjoint lfemur
    lfemur ltibia
    ltibia lfoot
    lfoot ltoes
    rhipjoint rfemur
    rfemur rtibia
    rtibia rfoot
    rfoot rtoes
    lowerback upperback
    upperback thorax
    thorax lowerneck lclavicle rclavicle
    lowerneck upperneck
    upperneck head
    lclavicle lhumerus
    lhumerus lradius
    lradius lwrist
    lwrist lhand lthumb
    lhand lfingers
    rclavicle rhumerus
    rhumerus rradius
    rradius rwrist
    rwrist rhand rthumb
    rhand rfingers
  end

#!OML:ASF F:\twosubjects\two\wednesday\Session 1\Justin1.ASF
:FULLY-SPECIFIED
:DEGREES
49
root 1.64064 17.6768 17.247 -176.772 7.94138 -179.319
lowerback 0.549175 3.69596 0.824233
upperback -0.551194 4.95217 0.671634
thorax -0.861185 2.47698 0.164201
lowerneck -13.6375 -4.39988 -11.7793
upperneck 16.3672 -5.48314 8.95681
head 7.86822 -2.63711 4.307
rclavicle -7.93648e-014 -1.09332e-014
rhumerus -15.6682 -9.99449 -84.6832
rradius 37.3055
rwrist -20.8746
rhand -15.1967 20.6975
rfingers 7.12502
rthumb 10.975 -8.9956
lclavicle -7.93648e-014 -1.09332e-014
lhumerus -49.6523 41.517 51.9533
lradius 14.4353
lwrist -33.8681
lhand -1.86732 41.4526
lfingers 7.12502
lthumb 23.8006 69.9984
rfemur 10.5317 2.48345 18.1549
rtibia 38.7495
rfoot 22.6866 4.26825
rtoes 5.9682
lfemur -29.2507 7.48201 -23.462
ltibia 30.5056
lfoot -1.19571 -2.32562
ltoes 6.58332
50
root 1.62287 17.6953 17.0823 -177.193 7.79266 -179.88
lowerback 0.816386 3.61458 0.35974
upperback -0.387626 4.83315 0.519739
thorax -0.868395 2.41751 0.255294
lowerneck -14.0962 -4.29882 -11.6294
upperneck 16.7312 -5.3714 9.04433
head 8.05526 -2.56201 4.32564
rclavicle -1.61388e-014 -7.35503e-015
rhumerus -16.8662 -11.0656 -84.6005
rradius 36.1133
rwrist -20.4002
rhand -15.2353 20.3277
rfingers 7.12502
rthumb 10.9378 -9.36744
lclavicle -1.61388e-014 -7.35503e-015
lhumerus -47.8303 42.1676 53.5953
lradius 14.258
lwrist -34.3403
lhand -1.7956 41.4589
lfingers 7.12502
lthumb 23.8694 69.9957
rfemur 9.06985 2.60713 17.5619
rtibia 42.0921
rfoot 22.3051 2.6718
rtoes 0.683168
lfemur -28.0501 7.1037 -24.0798
ltibia 30.2922
lfoot -1.8338 -2.01149
ltoes 4.46111
51
root 1.61119 17.7122 16.9186 -177.593 7.88983 -180.528
lowerback 0.959924 3.5114 -0.370204
upperback -0.361163 4.68376 0.460902
thorax -0.974611 2.34585 0.591675
lowerneck -13.8948 -4.04787 -11.5072
upperneck 16.9506 -5.07531 8.87698
head 8.04986 -2.44438 4.28789
rclavicle -7.59854e-014 -4.96962e-015
rhumerus -18.0676 -12.0789 -84.4352
rradius 34.3825
rwrist -19.4149
rhand -15.4795 19.4381
rfingers 7.12502
rthumb 10.7022 -10.2693
lclavicle -7.59854e-014 -4.96962e-015
lhumerus -45.8331 41.6891 56.2582
lradius 14.4319
lwrist -33.3656
lhand -1.9524 41.5663
lfingers 7.12502
lthumb 23.7191 70.1227
rfemur 7.59847 2.74929 16.8076
rtibia 45.2898
rfoot 21.0344 0.438318
rtoes -0.633536
lfemur -26.8148 7.06721 -24.8069
ltibia 29.9986
lfoot -2.41901 -1.83785
ltoes 3.26391
52
root 1.59432 17.7302 16.7542 -177.939 7.78455 -181.076
lowerback 1.05574 3.43727 -0.975253
upperback -0.464102 4.57497 0.423653
thorax -1.17653 2.29607 0.879432
lowerneck -13.3095 -3.92356 -11.2907
upperneck 17.1827 -5.00049 8.52401
head 7.99787 -2.45822 4.14652
rclavicle 4.18007e-014 -2.38542e-015
rhumerus -19.367 -13.4405 -83.9664
rradius 32.3209
rwrist -18.0946
rhand -15.7183 18.0848
rfingers 7.12502
rthumb 10.4719 -11.6344
lclavicle 4.18007e-014 -2.38542e-015
lhumerus -43.8894 40.9274 58.8238
lradius 14.46
lwrist -32.5439
lhand -2.06626 41.5464
lfingers 7.12502
lthumb 23.6098 70.1169
rfemur 6.20459 2.59686 16.0949
rtibia 48.253
rfoot 19.1415 -2.29053
rtoes 0.118296
lfemur -25.6306 6.99145 -25.4971
ltibia 29.6352
lfoot -2.90452 -1.80304
ltoes 2.23113
53
root 1.57078 17.7478 16.5835 -178.265 7.534 -181.318
lowerback 0.851565 3.33322 -1.11746
upperback -0.253509 4.43552 0.410069
thorax -0.852938 2.22436 0.969076
lowerneck -13.5304 -3.88184 -11.2073
upperneck 17.7249 -5.01298 8.57418
head 8.21706 -2.46656 4.15263
rclavicle 2.45623e-014 1.39149e-014
rhumerus -20.0711 -14.7261 -83.5396
rradius 30.1751
rwrist -16.5304
rhand -15.8719 17.5509
rfingers 7.12502
rthumb 10.3237 -12.1757
lclavicle 2.45623e-014 1.39149e-014
lhumerus -41.4675 40.6529 61.3559
lradius 14.3569
lwrist -32.2214
lhand -2.09671 41.1223
lfingers 7.12502
lthumb 23.5806 69.6965
rfemur 4.91291 2.27182 15.6992
rtibia 50.9465
rfoot 17.0676 -4.76889
rtoes 3.57072
lfemur -24.4608 6.71034 -25.8671
ltibia 29.3037
lfoot -3.40161 -1.63635
ltoes 0.442959
54
root 1.55475 17.7698 16.4172 -178.501 7.19638 -181.573
lowerback 0.447124 3.05759 -1.42077
upperback 0.436235 4.07514 0.473141
thorax 0.0632942 2.03564 1.25756
lowerneck -15.5613 -3.95966 -11.153
upperneck 18.6749 -4.94135 8.5798
head 8.89809 -2.38042 4.15419
rclavicle -3.91482e-014 7.95139e-016
rhumerus -19.4578 -15.8123 -83.5523
rradius 28.0429
rwrist -14.483
rhand -16.2238 16.1655
rfingers 7.12502
rthumb 9.98424 -13.5777
lclavicle -3.91482e-014 7.95139e-016
lhumerus -37.9781 40.93 64.6007
lradius 14.3736
lwrist -31.7968
lhand -2.01113 40.8109
lfingers 7.12502
lthumb 23.6627 69.3745
rfemur 3.56211 1.75234 15.2827
rtibia 53.3013
rfoot 14.6869 -6.74842
rtoes 7.63571
lfemur -23.437 6.58067 -26.2465
ltibia 29.005
lfoot -3.81825 -1.77053
ltoes -0.816454
55
root 1.54884 17.7932 16.2641 -178.666 6.53448 -181.584
lowerback 0.510334 2.69962 -1.55201
upperback 0.134413 3.59387 0.575715
thorax -0.280222 1.79919 1.42611
lowerneck -14.3301 -3.66726 -10.9831
upperneck 18.5915 -4.72849 8.42535
head 8.61162 -2.33278 4.10394
rclavicle -1.31819e-014 4.37326e-015
rhumerus -20.8687 -17.4365 -82.9982
rradius 26.2713
rwrist -11.8573
rhand -16.3246 14.2801
rfingers 7.12502
rthumb 9.88697 -15.4677
lclavicle -1.31819e-014 4.37326e-015
lhumerus -36.3023 39.3049 66.9462
lradius 14.6653
lwrist -30.5248
lhand -1.88529 40.6661
lfingers 7.12502
lthumb 23.7834 69.2141
rfemur 2.21398 0.966773 15.2177
rtibia 55.3047
rfoot 12.1379 -8.72013
rtoes 9.91286
lfemur -22.4897 6.3187 -26.3193
ltibia 28.6735
lfoot -4.06433 -2.16308
ltoes -0.884045
56
root 1.5434 17.8159 16.1149 -178.965 5.82643 -181.423
lowerback 0.910846 2.37753 -1.39172
upperback 0.0624836 3.16015 0.587243
thorax -0.554244 1.58482 1.33324
lowerneck -14.2465 -3.54729 -10.4947
upperneck 18.6811 -4.64315 8.14707
head 8.59816 -2.29355 3.93729
rclavicle 3.32964e-014 9.14409e-015
rhumerus -21.9129 -19.98 -82.2276
rradius 24.2229
rwrist -9.09006
rhand -15.5656 14.7504
rfingers 7.12502
rthumb 10.6193 -14.9613
lclavicle 3.32964e-014 9.14409e-015
lhumerus -33.8375 37.0679 69.7624
lradius 15.0286
lwrist -28.7311
lhand -1.76347 40.2556
lfingers 7.12502
lthumb 23.9002 68.7883
rfemur 1.0378 0.315399 15.4087
rtibia 56.9736
rfoot 9.77499 -10.6765
rtoes 13.4805
lfemur -21.356 5.88063 -26.1536
ltibia 28.2863
lfoot -4.34709 -2.41627
ltoes -0.0414713
57
root 1.53903 17.8352 15.9658 -179.354 5.19491 -181.628
lowerback 1.02035 2.02878 -1.70151
upperback 0.277785 2.69234 0.599325
thorax -0.394072 1.34909 1.52737
lowerneck -14.691 -3.47442 -10.3471
upperneck 19.0425 -4.56917 8.17639
head 8.79067 -2.24298 3.93404
rclavicle 5.46658e-015 5.56597e-015
rhumerus -22.515 -22.7553 -81.1882
rradius 22.1586
rwrist -6.253
rhand -14.485 15.27
rfingers 7.12502
rthumb 11.6615 -14.3855
lclavicle 5.46658e-015 5.56597e-015
lhumerus -31.2203 34.6708 72.8517
lradius 15.7381
lwrist -26.3645
lhand -1.88356 39.8386
lfingers 7.12502
lthumb 23.7851 68.3864
rfemur 0.00308481 -0.252892 15.1387
rtibia 58.3144
rfoot 7.19957 -12.0809
rtoes 17.4382
lfemur -20.1679 5.4388 -26.3673
ltibia 27.9306
lfoot -4.72456 -2.59203
ltoes 0.615408
58
root 1.53643 17.8488 15.8096 -179.576 4.73561 -181.976
lowerback 0.61894 1.69611 -2.34915
upperback 0.600039 2.25689 0.737669
thorax 0.147677 1.12281 2.05835
lowerneck -14.9602 -3.39643 -10.3615
upperneck 19.0191 -4.40953 8.16609
head 8.81583 -2.15827 3.95175
rclavicle -1.37161e-014 3.97569e-016
rhumerus -23.0139 -25.4898 -79.9013
rradius 20.4876
rwrist -2.79183
rhand -13.7623 15.4694
rfingers 7.12502
rthumb 12.3583 -14.1454
lclavicle -1.37161e-014 3.97569e-016
lhumerus -28.9098 33.2862 75.4921
lradius 16.4339
lwrist -24.9196
lhand -2.29616 39.5287
lfingers 7.12502
lthumb 23.3893 68.1274
rfemur -1.17324 -0.825511 14.6355
rtibia 59.3356
rfoot 4.49028 -13.0466
rtoes 17.5833
lfemur -19.1947 5.3244 -26.7796
ltibia 27.6129
lfoot -5.11928 -2.91411
ltoes -0.549328
59
root 1.53241 17.8604 15.6554 -179.609 4.25019 -182.124
lowerback 0.397994 1.35157 -2.7283
upperback 0.595576 1.80148 0.868105
thorax 0.275486 0.891717 2.41444
lowerneck -14.831 -3.74934 -10.0143
upperneck 18.9542 -4.08511 7.84135
head 8.7396 -1.69193 3.86846
rclavicle 7.11898e-015 1.70955e-014
rhumerus -24.3305 -27.3299 -78.591
rradius 19.2282
rwrist 0.279515
rhand -13.8505 17.2431
rfingers 7.12502
rthumb 12.2733 -12.3768
lclavicle 7.11898e-015 1.70955e-014
lhumerus -27.1077 32.0903 77.461
lradius 17.0552
lwrist -24.0003
lhand -2.34633 38.9077
lfingers 7.12502
lthumb 23.3412 67.5125
rfemur -2.51924 -1.43395 14.3717
rtibia 60.0369
rfoot 1.818 -14.2353
rtoes 17.6843
lfemur -18.4495 5.36338 -27.0275
ltibia 27.3087
lfoot -5.47092 -3.35492
ltoes -1.84891
60
root 1.52547 17.8675 15.5144 -179.726 3.50025 -182.349
lowerback 0.617366 0.947576 -2.99204
upperback 0.383678 1.25161 0.831382
thorax -0.0353295 0.622798 2.52108
lowerneck -14.6767 -3.64351 -9.82791
upperneck 19.1528 -3.99161 7.88217
head 8.76592 -1.62385 3.86925
rclavicle 7.0817e-016 9.54166e-015
rhumerus -26.2217 -28.8564 -77.2311
rradius 18.2871
rwrist 2.68395
rhand -14.2879 17.663
rfingers 7.12502
rthumb 11.8515 -11.9816
lclavicle 7.0817e-016 9.54166e-015
lhumerus -25.6389 30.1672 79.0955
lradius 17.9322
lwrist -22.4353
lhand -2.27654 38.6717
lfingers 7.12502
lthumb 23.4081 67.268
rfemur -3.69598 -2.19257 14.0055
rtibia 60.4608
rfoot -0.305701 -15.0736
rtoes 21.9093
lfemur -17.6799 5.05326 -27.3532
ltibia 27.0971
lfoot -5.90272 -3.6992
ltoes -1.31965
61
root 1.51372 17.862 15.3694 -179.949 3.11558 -182.637
lowerback 0.618368 0.616514 -3.29585
upperback 0.355376 0.807849 0.835419
thorax -0.0397769 0.400751 2.69969
lowerneck -14.5244 -3.5174 -9.87171
upperneck 19.1823 -3.82141 7.92001
head 8.73277 -1.54299 3.91253
rclavicle 8.39865e-015 9.54166e-015
rhumerus -27.9509 -30.2754 -75.715
rradius 17.5172
rwrist 5.14423
rhand -14.4823 16.0156
rfingers 7.12502
rthumb 11.664 -13.6397
lclavicle 8.39865e-015 9.54166e-015
lhumerus -24.2222 28.4775 80.6268
lradius 18.7939
lwrist -20.4934
lhand -2.78743 38.4356
lfingers 7.12502
lthumb 22.918 67.0936
rfemur -4.82452 -2.64394 13.4901
rtibia 60.7
rfoot -2.32013 -15.163
rtoes 24.3993
lfemur -16.846 4.96086 -27.7553
ltibia 26.9561
lfoot -6.41254 -3.85127
ltoes -2.22839
62
root 1.51141 17.8518 15.2175 -180.184 2.93352 -182.737
lowerback 0.5199 0.262784 -3.61437
upperback 0.313209 0.337568 1.01699
thorax 0.00294408 0.16479 3.06998
lowerneck -14.1364 -3.28746 -10.1318
upperneck 19.1153 -3.48033 7.99403
head 8.61157 -1.39751 4.0237
rclavicle -1.1486e-014 -4.77083e-015
rhumerus -29.6159 -30.4151 -74.494
rradius 17.0012
rwrist 6.88876
rhand -15.1164 14.7055
rfingers 7.12502
rthumb 11.0525 -14.9835
lclavicle -1.1486e-014 -4.77083e-015
lhumerus -23.0987 27.0811 81.9361
lradius 19.6159
lwrist -18.4282
lhand -3.33991 37.678
lfingers 7.12502
lthumb 22.3877 66.4007
rfemur -5.96949 -2.84245 13.2927
rtibia 60.7913
rfoot -5.29682 -15.2695
rtoes 21.0965
lfemur -15.9814 5.28462 -27.9153
ltibia 26.8007
lfoot -6.85587 -4.09829
ltoes -3.74165
63
root 1.51783 17.8463 15.0722 -180.356 2.29132 -182.831
lowerback 0.684042 -0.109165 -3.96316
upperback 0.153515 -0.169314 1.11048
thorax -0.211104 -0.0821387 3.36635
lowerneck -13.9244 -3.16209 -10.2289
upperneck 19.235 -3.32353 8.15477
head 8.60155 -1.31086 4.11902
rclavicle 5.59082e-017 2.14687e-014
rhumerus -31.3746 -30.1061 -73.5832
rradius 16.9585
rwrist 6.99836
rhand -15.8704 14.5643
rfingers 7.12502
rthumb 10.3252 -15.1622
lclavicle 5.59082e-017 2.14687e-014
lhumerus -21.9136 25.2303 83.1204
lradius 20.5296
lwrist -16.3792
lhand -3.23321 37.5862
lfingers 7.12502
lthumb 22.4901 66.2965
rfemur -7.126 -3.43491 13.2295
rtibia 60.7738
rfoot -7.84908 -15.5353
rtoes 16.9212
lfemur -15.1951 5.36797 -28.0176
ltibia 26.6955
lfoot -7.32422 -4.62974
ltoes -3.23612
